<svg width="34" height="34" viewBox="0 0 34 34" fill="none" xmlns="http://www.w3.org/2000/svg">
<path d="M17 15.5833V24.0833M12.75 19.8333H21.25M31.1667 26.9167C31.1667 27.6681 30.8682 28.3888 30.3368 28.9201C29.8055 29.4515 29.0848 29.75 28.3334 29.75H5.66671C4.91526 29.75 4.19459 29.4515 3.66324 28.9201C3.13188 28.3888 2.83337 27.6681 2.83337 26.9167V7.08333C2.83337 6.33189 3.13188 5.61122 3.66324 5.07986C4.19459 4.54851 4.91526 4.25 5.66671 4.25H12.75L15.5834 8.5H28.3334C29.0848 8.5 29.8055 8.79851 30.3368 9.32986C30.8682 9.86122 31.1667 10.5819 31.1667 11.3333V26.9167Z" stroke="white" stroke-width="2" stroke-linecap="round" stroke-linejoin="round"/>
</svg>
