<svg width="257" height="41" viewBox="0 0 257 41" fill="none" xmlns="http://www.w3.org/2000/svg">
<path d="M0.5 20.5C0.5 9.45431 9.45431 0.5 20.5 0.5H236.5C247.546 0.5 256.5 9.45431 256.5 20.5C256.5 31.5457 247.546 40.5 236.5 40.5H20.5C9.45431 40.5 0.5 31.5457 0.5 20.5Z" fill="white"/>
<path d="M0.5 20.5M256.5 20.5M256.5 20.5M0.5 20.5M20.5 0.5V1H236.5V0.5V0H20.5V0.5ZM256.5 20.5M236.5 40.5V40H20.5V40.5V41H236.5V40.5ZM0.5 20.5M20.5 40.5V40C9.73045 40 1 31.2696 1 20.5H0.5H0C0 31.8218 9.17816 41 20.5 41V40.5ZM256.5 20.5H256C256 31.2696 247.27 40 236.5 40V40.5V41C247.822 41 257 31.8218 257 20.5H256.5ZM236.5 0.5V1C247.27 1 256 9.73045 256 20.5H256.5H257C257 9.17816 247.822 0 236.5 0V0.5ZM20.5 0.5V0C9.17816 0 0 9.17816 0 20.5H0.5H1C1 9.73045 9.73045 1 20.5 1V0.5Z" fill="#D9D9D9"/>
<path d="M24.2727 17.7727C24.2045 17.197 23.928 16.75 23.4432 16.4318C22.9583 16.1136 22.3636 15.9545 21.6591 15.9545C21.1439 15.9545 20.6932 16.0379 20.3068 16.2045C19.9242 16.3712 19.625 16.6004 19.4091 16.892C19.197 17.1837 19.0909 17.5152 19.0909 17.8864C19.0909 18.197 19.1648 18.464 19.3125 18.6875C19.464 18.9072 19.6572 19.0909 19.892 19.2386C20.1269 19.3826 20.3731 19.5019 20.6307 19.5966C20.8883 19.6875 21.125 19.7614 21.3409 19.8182L22.5227 20.1364C22.8258 20.2159 23.1629 20.3258 23.5341 20.4659C23.9091 20.6061 24.267 20.7973 24.608 21.0398C24.9527 21.2784 25.2367 21.5852 25.4602 21.9602C25.6837 22.3352 25.7955 22.7955 25.7955 23.3409C25.7955 23.9697 25.6307 24.5379 25.3011 25.0455C24.9754 25.553 24.4981 25.9564 23.8693 26.2557C23.2443 26.5549 22.4848 26.7045 21.5909 26.7045C20.7576 26.7045 20.036 26.5701 19.4261 26.3011C18.8201 26.0322 18.3428 25.6572 17.9943 25.1761C17.6496 24.6951 17.4545 24.1364 17.4091 23.5H18.8636C18.9015 23.9394 19.0492 24.303 19.3068 24.5909C19.5682 24.875 19.8977 25.0871 20.2955 25.2273C20.697 25.3636 21.1288 25.4318 21.5909 25.4318C22.1288 25.4318 22.6117 25.3447 23.0398 25.1705C23.4678 24.9924 23.8068 24.7462 24.0568 24.4318C24.3068 24.1136 24.4318 23.7424 24.4318 23.3182C24.4318 22.9318 24.3239 22.6174 24.108 22.375C23.892 22.1326 23.608 21.9356 23.2557 21.7841C22.9034 21.6326 22.5227 21.5 22.1136 21.3864L20.6818 20.9773C19.7727 20.7159 19.053 20.3428 18.5227 19.858C17.9924 19.3731 17.7273 18.7386 17.7273 17.9545C17.7273 17.303 17.9034 16.7348 18.2557 16.25C18.6117 15.7614 19.089 15.3826 19.6875 15.1136C20.2898 14.8409 20.9621 14.7045 21.7045 14.7045C22.4545 14.7045 23.1212 14.839 23.7045 15.108C24.2879 15.3731 24.75 15.7367 25.0909 16.1989C25.4356 16.661 25.6174 17.1856 25.6364 17.7727H24.2727ZM31.5895 26.6818C30.7486 26.6818 30.0232 26.4962 29.4134 26.125C28.8073 25.75 28.3395 25.2273 28.0099 24.5568C27.6842 23.8826 27.5213 23.0985 27.5213 22.2045C27.5213 21.3106 27.6842 20.5227 28.0099 19.8409C28.3395 19.1553 28.7978 18.6212 29.3849 18.2386C29.9759 17.8523 30.6652 17.6591 31.4531 17.6591C31.9077 17.6591 32.3565 17.7348 32.7997 17.8864C33.2429 18.0379 33.6463 18.2841 34.0099 18.625C34.3736 18.9621 34.6634 19.4091 34.8793 19.9659C35.0952 20.5227 35.2031 21.2083 35.2031 22.0227V22.5909H28.4759V21.4318H33.8395C33.8395 20.9394 33.741 20.5 33.544 20.1136C33.3509 19.7273 33.0743 19.4223 32.7145 19.1989C32.3584 18.9754 31.938 18.8636 31.4531 18.8636C30.919 18.8636 30.4569 18.9962 30.0668 19.2614C29.6804 19.5227 29.383 19.8636 29.1747 20.2841C28.9664 20.7045 28.8622 21.1553 28.8622 21.6364V22.4091C28.8622 23.0682 28.9759 23.6269 29.2031 24.0852C29.4342 24.5398 29.7543 24.8864 30.1634 25.125C30.5724 25.3598 31.0478 25.4773 31.5895 25.4773C31.9418 25.4773 32.2599 25.428 32.544 25.3295C32.8319 25.2273 33.08 25.0758 33.2884 24.875C33.4967 24.6705 33.6577 24.4167 33.7713 24.1136L35.0668 24.4773C34.9304 24.9167 34.7012 25.303 34.3793 25.6364C34.0573 25.9659 33.6596 26.2235 33.1861 26.4091C32.7126 26.5909 32.1804 26.6818 31.5895 26.6818ZM39.8111 26.7045C39.258 26.7045 38.7562 26.6004 38.3054 26.392C37.8546 26.1799 37.4967 25.875 37.2315 25.4773C36.9664 25.0758 36.8338 24.5909 36.8338 24.0227C36.8338 23.5227 36.9323 23.1174 37.1293 22.8068C37.3262 22.4924 37.5895 22.2462 37.919 22.0682C38.2486 21.8902 38.6122 21.7576 39.0099 21.6705C39.4115 21.5795 39.8149 21.5076 40.2202 21.4545C40.7505 21.3864 41.1804 21.3352 41.5099 21.3011C41.8433 21.2633 42.0857 21.2008 42.2372 21.1136C42.3925 21.0265 42.4702 20.875 42.4702 20.6591V20.6136C42.4702 20.053 42.3168 19.6174 42.0099 19.3068C41.7069 18.9962 41.2467 18.8409 40.6293 18.8409C39.9891 18.8409 39.4872 18.9811 39.1236 19.2614C38.7599 19.5417 38.5043 19.8409 38.3565 20.1591L37.0838 19.7045C37.3111 19.1742 37.6141 18.7614 37.9929 18.4659C38.3755 18.1667 38.7921 17.9583 39.2429 17.8409C39.6974 17.7197 40.1444 17.6591 40.5838 17.6591C40.8641 17.6591 41.1861 17.6932 41.5497 17.7614C41.9171 17.8258 42.2713 17.9602 42.6122 18.1648C42.9569 18.3693 43.2429 18.678 43.4702 19.0909C43.6974 19.5038 43.8111 20.0568 43.8111 20.75V26.5H42.4702V25.3182H42.402C42.3111 25.5076 42.1596 25.7102 41.9474 25.9261C41.7353 26.142 41.4531 26.3258 41.1009 26.4773C40.7486 26.6288 40.3187 26.7045 39.8111 26.7045ZM40.0156 25.5C40.5459 25.5 40.9929 25.3958 41.3565 25.1875C41.724 24.9792 42.0005 24.7102 42.1861 24.3807C42.3755 24.0511 42.4702 23.7045 42.4702 23.3409V22.1136C42.4134 22.1818 42.2884 22.2443 42.0952 22.3011C41.9058 22.3542 41.6861 22.4015 41.4361 22.4432C41.1899 22.4811 40.9493 22.5152 40.7145 22.5455C40.4834 22.572 40.2959 22.5947 40.152 22.6136C39.8035 22.6591 39.4777 22.733 39.1747 22.8352C38.8755 22.9337 38.633 23.0833 38.4474 23.2841C38.2656 23.4811 38.1747 23.75 38.1747 24.0909C38.1747 24.5568 38.3471 24.9091 38.6918 25.1477C39.0402 25.3826 39.4815 25.5 40.0156 25.5ZM46.2585 26.5V17.7727H47.554V19.0909H47.6449C47.804 18.6591 48.0919 18.3087 48.5085 18.0398C48.9252 17.7708 49.3949 17.6364 49.9176 17.6364C50.0161 17.6364 50.1392 17.6383 50.2869 17.642C50.4347 17.6458 50.5464 17.6515 50.6222 17.6591V19.0227C50.5767 19.0114 50.4725 18.9943 50.3097 18.9716C50.1506 18.9451 49.982 18.9318 49.804 18.9318C49.3797 18.9318 49.0009 19.0208 48.6676 19.1989C48.3381 19.3731 48.0767 19.6155 47.8835 19.9261C47.6941 20.233 47.5994 20.5833 47.5994 20.9773V26.5H46.2585ZM55.4915 26.6818C54.6733 26.6818 53.9688 26.4886 53.3778 26.1023C52.7869 25.7159 52.3324 25.1837 52.0142 24.5057C51.696 23.8277 51.5369 23.053 51.5369 22.1818C51.5369 21.2955 51.6998 20.5133 52.0256 19.8352C52.3551 19.1534 52.8134 18.6212 53.4006 18.2386C53.9915 17.8523 54.6809 17.6591 55.4688 17.6591C56.0824 17.6591 56.6354 17.7727 57.1278 18C57.6203 18.2273 58.0237 18.5455 58.3381 18.9545C58.6525 19.3636 58.8475 19.8409 58.9233 20.3864H57.5824C57.4801 19.9886 57.2528 19.6364 56.9006 19.3295C56.5521 19.0189 56.0824 18.8636 55.4915 18.8636C54.9688 18.8636 54.5104 19 54.1165 19.2727C53.7263 19.5417 53.4214 19.9223 53.2017 20.4148C52.9858 20.9034 52.8778 21.4773 52.8778 22.1364C52.8778 22.8106 52.9839 23.3977 53.196 23.8977C53.4119 24.3977 53.715 24.786 54.1051 25.0625C54.4991 25.339 54.9612 25.4773 55.4915 25.4773C55.84 25.4773 56.1562 25.4167 56.4403 25.2955C56.7244 25.1742 56.965 25 57.1619 24.7727C57.3589 24.5455 57.4991 24.2727 57.5824 23.9545H58.9233C58.8475 24.4697 58.66 24.9337 58.3608 25.3466C58.0653 25.7557 57.6733 26.0814 57.1847 26.3239C56.6998 26.5625 56.1354 26.6818 55.4915 26.6818ZM62.2244 21.25V26.5H60.8835V14.8636H62.2244V19.1364H62.3381C62.5426 18.6856 62.8494 18.3277 63.2585 18.0625C63.6714 17.7936 64.2206 17.6591 64.9062 17.6591C65.5009 17.6591 66.0218 17.7784 66.4688 18.017C66.9157 18.2519 67.2623 18.6136 67.5085 19.1023C67.7585 19.5871 67.8835 20.2045 67.8835 20.9545V26.5H66.5426V21.0455C66.5426 20.3523 66.3627 19.8163 66.0028 19.4375C65.6468 19.0549 65.1525 18.8636 64.5199 18.8636C64.0805 18.8636 63.6866 18.9564 63.3381 19.142C62.9934 19.3277 62.7206 19.5985 62.5199 19.9545C62.3229 20.3106 62.2244 20.7424 62.2244 21.25Z" fill="#B3B3B3"/>
<path d="M238.5 26.5L235.6 23.6M237.167 19.8333C237.167 22.7789 234.779 25.1667 231.833 25.1667C228.888 25.1667 226.5 22.7789 226.5 19.8333C226.5 16.8878 228.888 14.5 231.833 14.5C234.779 14.5 237.167 16.8878 237.167 19.8333Z" stroke="#1E1E1E" stroke-width="1.6" stroke-linecap="round" stroke-linejoin="round"/>
</svg>
