<svg width="29" height="29" viewBox="0 0 29 29" fill="none" xmlns="http://www.w3.org/2000/svg">
<path d="M14.5 8.45833C14.5 7.17645 13.9908 5.94708 13.0843 5.04065C12.1779 4.13422 10.9485 3.625 9.66666 3.625H2.41666V21.75H10.875C11.8364 21.75 12.7584 22.1319 13.4383 22.8117C14.1181 23.4916 14.5 24.4136 14.5 25.375M14.5 8.45833V25.375M14.5 8.45833C14.5 7.17645 15.0092 5.94708 15.9156 5.04065C16.8221 4.13422 18.0514 3.625 19.3333 3.625H26.5833V21.75H18.125C17.1636 21.75 16.2415 22.1319 15.5617 22.8117C14.8819 23.4916 14.5 24.4136 14.5 25.375" stroke="#E3E2DB" stroke-width="4" stroke-linecap="round" stroke-linejoin="round"/>
</svg>
