<svg width="39" height="39" viewBox="0 0 39 39" fill="none" xmlns="http://www.w3.org/2000/svg">
<path d="M34.125 3.25L30.875 6.5M30.875 6.5L35.75 11.375L30.0625 17.0625L25.1875 12.1875M30.875 6.5L25.1875 12.1875M18.5087 18.8662C19.3478 19.6941 20.0148 20.6798 20.4713 21.7665C20.9279 22.8533 21.165 24.0196 21.1689 25.1983C21.1729 26.377 20.9436 27.5449 20.4943 28.6346C20.0451 29.7244 19.3847 30.7145 18.5512 31.548C17.7177 32.3815 16.7276 33.0419 15.6379 33.4911C14.5481 33.9404 13.3802 34.1696 12.2015 34.1657C11.0228 34.1617 9.8565 33.9246 8.76977 33.4681C7.68305 33.0116 6.69737 32.3446 5.86949 31.5055C4.24145 29.8199 3.3406 27.5622 3.36096 25.2189C3.38133 22.8755 4.32127 20.6338 5.97836 18.9767C7.63544 17.3197 9.87708 16.3797 12.2205 16.3594C14.5638 16.339 16.8215 17.2398 18.5071 18.8679L18.5087 18.8662ZM18.5087 18.8662L25.1875 12.1875" stroke="#6F6C68" stroke-width="4" stroke-linecap="round" stroke-linejoin="round"/>
</svg>
