<svg width="70" height="79" viewBox="0 0 70 79" fill="none" xmlns="http://www.w3.org/2000/svg">
<path d="M47.019 0L51.4042 35.0556H42.6338L47.019 0Z" fill="#FFE643"/>
<path d="M47.019 70.1111L42.6338 35.0554H51.4042L47.019 70.1111Z" fill="#FFE643"/>
<path d="M24.0381 35.0555L46.8243 31.0077V39.1034L24.0381 35.0555Z" fill="#FFE643"/>
<path d="M70 35.0556L47.2138 39.1034V31.0077L70 35.0556Z" fill="#FFE643"/>
<path d="M27.989 42.0667L30.2718 60.316H25.7061L27.989 42.0667Z" fill="#FFE643"/>
<path d="M27.9889 78.5652L25.7061 60.3159H30.2718L27.9889 78.5652Z" fill="#FFE643"/>
<path d="M16.0256 60.3157L27.8876 58.2085V62.423L16.0256 60.3157Z" fill="#FFE643"/>
<path d="M39.9525 60.3159L28.0904 62.4231V58.2086L39.9525 60.3159Z" fill="#FFE643"/>
<path d="M8.01277 6.00922L9.54175 18.232H6.48379L8.01277 6.00922Z" fill="#FFE643"/>
<path d="M8.01281 30.4548L6.48383 18.232H9.54179L8.01281 30.4548Z" fill="#FFE643"/>
<path d="M0 18.2323L7.94481 16.8209V19.6436L0 18.2323Z" fill="#FFE643"/>
<path d="M16.0255 18.2321L8.08064 19.6435V16.8208L16.0255 18.2321Z" fill="#FFE643"/>
</svg>
